PathFileType	4	(X/Y/Z)	C:\Users\dbl\Desktop\20210112\20210112\bx_n_5_1801.trc
DataRate	CameraRate	NumFrames	NumMarkers	Units	OrigDataRate	OrigDataStartFrame	OrigNumFrames
50.00	50.00	       5	43	mm	50.00	403	       460
Frame#	Time	Top.Head			R.Acromium			L.Acromium			Sternum			R.ASIS			L.ASIS			V.Sacral			R.Thigh.Upper			R.Thigh.Front			R.Thigh.Rear			R.Knee.Lat			R.Knee.Med			R.Shank.Upper			R.Shank.Front			R.Shank.Rear			R.Ankle.Lat			R.Midfoot.Lat			R.Toe.Lat			R.Toe.Tip			R.Toe.Med			R.Ankle.Med			R.Midfoot.Sup			R.Heel			L.Thigh.Upper			L.Thigh.Front			L.Thigh.Rear			L.Knee.Lat			L.Knee.Med			L.Shank.Upper			L.Shank.Front			L.Shank.Rear			L.Ankle.Lat			L.Midfoot.Lat			L.Toe.Lat			L.Toe.Tip			L.Toe.Med			L.Ankle.Med			L.Midfoot.Sup			L.Heel			origin1 front left			origin2 front right			origin 3 back right			origin 4 back leftt			
		X1	Y1	Z1	X2	Y2	Z2	X3	Y3	Z3	X4	Y4	Z4	X5	Y5	Z5	X6	Y6	Z6	X7	Y7	Z7	X8	Y8	Z8	X9	Y9	Z9	X10	Y10	Z10	X11	Y11	Z11	X12	Y12	Z12	X13	Y13	Z13	X14	Y14	Z14	X15	Y15	Z15	X16	Y16	Z16	X17	Y17	Z17	X18	Y18	Z18	X19	Y19	Z19	X20	Y20	Z20	X21	Y21	Z21	X22	Y22	Z22	X23	Y23	Z23	X24	Y24	Z24	X25	Y25	Z25	X26	Y26	Z26	X27	Y27	Z27	X28	Y28	Z28	X29	Y29	Z29	X30	Y30	Z30	X31	Y31	Z31	X32	Y32	Z32	X33	Y33	Z33	X34	Y34	Z34	X35	Y35	Z35	X36	Y36	Z36	X37	Y37	Z37	X38	Y38	Z38	X39	Y39	Z39	X40	Y40	Z40	X41	Y41	Z41	X42	Y42	Z42	X43	Y43	Z43	

403	8.040	-751.73340	70.87958	1848.84937	-721.76593	-99.05298	1535.96997	-726.19666	259.92078	1541.61328	-609.73492	81.45222	1362.25647	-596.15369	-22.58369	1062.67017	-613.90143	227.57564	1073.97095	-805.71423	76.37142	1051.44263	-661.24170	-86.81913	875.24347	-589.71527	-16.27626	808.98328	-684.74976	-72.00902	761.14270	-704.25110	-45.26198	618.13257	-687.64246	64.04651	578.99548	-705.87604	-47.47078	576.77393	-663.46631	5.61634	521.11322	-759.81744	-51.20619	489.74918	-760.49890	-22.65825	205.71556	-650.93372	-69.98737	159.37540	-607.81720	-75.66624	157.71548	-552.52643	-27.87365	165.71341	-600.39807	23.77316	170.93684	-717.56787	65.21642	218.17923	-673.74261	50.36352	163.12247	-792.87653	38.15948	175.11865	-695.77014	275.71936	880.67358	-598.13696	214.84953	799.66803	-701.49890	260.29099	749.09332	-728.41937	240.78043	645.95123	-683.30524	137.79237	583.14050	-726.08472	238.85034	580.21661	-671.04504	199.42883	538.34338	-766.74933	249.62532	505.12885	-767.79327	226.18919	206.09975	-660.83221	298.59442	157.52159	-624.30481	306.72906	158.48611	-555.84985	256.11237	165.08554	-592.18170	219.95589	174.57120	-709.76630	154.19217	216.71974	-674.70886	173.32349	158.51486	-794.84106	176.82419	185.43919	-528.32941	304.28787	146.38716	-518.05865	-72.82538	143.35597	-875.81689	-78.73132	141.19397	-882.61005	296.13284	144.59384	
404	8.060	-753.36072	70.67090	1848.59802	-722.98157	-98.90488	1535.71228	-727.01105	260.04837	1541.62354	-610.14362	81.69942	1362.30176	-595.59338	-22.36301	1062.55396	-613.08435	227.82587	1073.88672	-804.96021	76.85497	1051.26172	-660.83350	-86.60892	875.24042	-589.27539	-16.05656	808.94409	-684.35345	-71.72992	761.06396	-703.84613	-44.98289	618.19666	-687.18890	64.29343	578.91846	-705.97321	-46.74374	576.14130	-663.09473	5.76364	521.03870	-759.52167	-51.03761	489.83899	-760.53125	-22.58042	205.81972	-650.93762	-69.98405	159.43718	-607.84869	-75.67423	157.76210	-552.51068	-27.91425	165.70799	-600.38831	23.73107	170.95630	-717.51141	65.33337	218.08128	-673.73572	50.35634	163.10229	-793.00555	38.24437	175.18819	-694.98761	275.79974	880.49292	-597.52692	214.92844	799.58594	-700.89679	260.52814	749.02026	-727.93781	240.94650	645.90417	-683.01801	137.88705	583.21832	-725.75067	238.91296	580.17218	-670.74487	199.48434	538.23358	-766.52655	249.69373	505.14914	-767.76477	226.15897	206.15967	-660.81915	298.60092	157.54388	-624.30310	306.72592	158.50865	-555.79211	256.09280	165.04601	-592.17291	219.94635	174.57068	-709.70953	154.14313	216.71407	-674.65149	173.29691	158.45015	-794.81860	176.81216	185.46838	-528.32831	304.31512	146.39597	-518.05261	-72.82059	143.37042	-875.81464	-78.72965	141.19167	-882.59552	296.14905	144.61353	
405	8.080	-754.83655	70.47534	1848.36230	-724.02161	-98.73570	1535.47705	-727.63068	260.19781	1541.66003	-610.47980	81.96625	1362.32080	-595.11523	-22.20812	1062.41663	-612.35260	228.07414	1073.79797	-804.30182	77.25806	1051.10669	-660.47241	-86.48170	875.27820	-588.93958	-15.89489	808.91168	-683.99603	-71.51335	760.97150	-703.53271	-44.71351	618.22717	-686.77380	64.49970	578.86212	-705.94397	-46.23913	575.69000	-662.80383	5.89429	520.96118	-759.27051	-50.91435	489.95999	-760.56006	-22.50487	205.91092	-650.94171	-69.98301	159.49646	-607.87891	-75.67825	157.81610	-552.48883	-27.93624	165.70393	-600.38135	23.70843	170.96332	-717.49194	65.45050	217.99637	-673.73260	50.35017	163.08826	-793.13202	38.31973	175.25909	-694.33148	275.79993	880.30725	-597.00702	214.99931	799.49438	-700.42749	260.71609	748.95398	-727.60193	241.07944	645.87891	-682.84241	137.96347	583.28717	-725.55865	238.94510	580.12256	-670.56372	199.53877	538.14709	-766.42456	249.69969	505.16006	-767.74878	226.12279	206.20987	-660.82111	298.61435	157.55835	-624.30115	306.71884	158.52676	-555.74200	256.07541	165.00824	-592.16296	219.93692	174.57439	-709.69403	154.09224	216.69981	-674.60071	173.28146	158.38524	-794.81281	176.78960	185.48204	-528.31464	304.34021	146.40442	-518.04242	-72.81759	143.38350	-875.82251	-78.72796	141.19147	-882.58081	296.16153	144.62906	
406	8.100	-756.14642	70.30233	1848.14404	-724.90076	-98.54124	1535.28223	-728.06824	260.37122	1541.69666	-610.75079	82.23898	1362.31641	-594.71259	-22.13777	1062.26306	-611.68280	228.31876	1073.69238	-803.73376	77.58431	1050.98535	-660.15295	-86.43537	875.33990	-588.69202	-15.81044	808.87506	-683.68573	-71.35607	760.86237	-703.29492	-44.49049	618.23444	-686.39301	64.65710	578.83795	-705.79425	-45.97374	575.45520	-662.58881	6.00450	520.88849	-759.07056	-50.83158	490.09549	-760.58228	-22.43968	205.98502	-650.94568	-69.98039	159.54443	-607.90674	-75.67669	157.87189	-552.47125	-27.94075	165.69939	-600.38031	23.70479	170.95529	-717.49945	65.55919	217.93651	-673.73444	50.34914	163.07568	-793.22101	38.37691	175.31538	-693.79468	275.75708	880.14197	-596.58765	215.04999	799.38110	-700.07544	260.85205	748.90552	-727.41437	241.17856	645.87897	-682.78546	138.02367	583.32080	-725.50214	238.95802	580.07678	-670.50476	199.59235	538.09882	-766.44580	249.66957	505.16428	-767.75354	226.08231	206.24084	-660.83783	298.63669	157.55777	-624.30182	306.71307	158.53639	-555.71136	256.06570	164.97424	-592.15271	219.93047	174.58087	-709.72681	154.04469	216.68001	-674.56506	173.28099	158.33038	-794.82019	176.76485	185.47955	-528.28967	304.35315	146.41125	-518.03107	-72.81813	143.39146	-875.83698	-78.72559	141.19536	-882.56836	296.16861	144.63828	
407	8.120	-757.28717	70.16724	1847.94397	-725.64099	-98.31625	1535.15051	-728.35120	260.56790	1541.70959	-610.96130	82.49723	1362.29309	-594.39008	-22.16430	1062.10864	-611.05902	228.53799	1073.55933	-803.25305	77.83936	1050.89612	-659.88177	-86.46162	875.40356	-588.50769	-15.81493	808.82635	-683.42999	-71.26171	760.74213	-703.11664	-44.35527	618.23279	-686.04913	64.75592	578.84485	-705.58508	-45.89743	575.40051	-662.43243	6.08622	520.83093	-758.92609	-50.78249	490.22165	-760.59937	-22.38634	206.04213	-650.94934	-69.97417	159.57495	-607.92981	-75.67002	157.92117	-552.46344	-27.93072	165.69075	-600.38654	23.71864	170.93323	-717.51880	65.65591	217.90883	-673.74164	50.35488	163.05602	-793.24658	38.41242	175.34265	-693.35834	275.69788	880.01556	-596.26727	215.05952	799.23853	-699.81818	260.92789	748.87982	-727.35907	241.23413	645.89484	-682.83905	138.06520	583.30103	-725.55975	238.95601	580.04089	-670.55762	199.63788	538.09479	-766.57379	249.62119	505.16440	-767.78467	226.03754	206.25053	-660.86658	298.66757	157.53969	-624.31128	306.71442	158.53630	-555.70776	256.06677	164.94588	-592.14392	219.92896	174.58743	-709.80396	154.00212	216.65858	-674.54999	173.29309	158.29155	-794.83636	176.74640	185.46304	-528.25934	304.34622	146.41760	-518.02148	-72.82251	143.39258	-875.85242	-78.72191	141.20401	-882.56012	296.17038	144.64114	
